<svg xmlns="http://www.w3.org/2000/svg" fill="red" viewBox="0 0 1920 273" height="273" width="1920">
    <path fill="#D1F5FF" d="M6450.89 73.0512L6254.29 36.5256C5992.17 -12.1752 5567.18 -12.1752 5305.06 36.5256C5042.93 85.2265 4617.94 85.2265 4355.82 36.5256C4093.69 -12.1752 3668.7 -12.1752 3406.58 36.5256C3144.45 85.2265 2719.46 85.2265 2457.34 36.5256C2195.21 -12.1752 1770.22 -12.1752 1508.1 36.5256C1245.97 85.2265 820.984 85.2265 558.859 36.5256C296.734 -12.1752 -128.255 -12.1752 -390.38 36.5256L-586.974 73.0512C-764.991 106.125 -865 150.984 -865 197.758V273H6728.91V197.758C6728.91 150.984 6628.9 106.125 6450.89 73.0512Z"></path>
</svg>